ffmpeg started on 2016-12-06 at 16:37:12
Report written to "Output/x264/results/ffmpeg/crowd_run_2160p50medium2500k.log"
Command line:
Tools/ffmpeg/ffmpeg -benchmark -y -i Input/y4m/crowd_run_2160p50.y4m -c:v libx264 -preset medium -b:v 2500k -an Output/x264/encoded/crowd_run_2160p50medium2500k.mkv
ffmpeg version N-82227-gdb23fde Copyright (c) 2000-2016 the FFmpeg developers
  built with gcc 5.4.0 (Ubuntu 5.4.0-6ubuntu1~16.04.2) 20160609
  configuration: --prefix=/home/jaroslav/ffmpeg_build --pkg-config-flags=--static --extra-cflags=-I/home/jaroslav/ffmpeg_build/include --extra-ldflags=-L/home/jaroslav/ffmpeg_build/lib --bindir=/home/jaroslav/bin --enable-gpl --enable-libass --enable-libfdk-aac --enable-libfreetype --enable-libmp3lame --enable-libopus --enable-libtheora --enable-libvorbis --enable-libvpx --enable-libx264 --enable-libx265 --enable-nvenc --enable-libmfx --enable-libxvid --enable-libgsm --enable-libopencore-amrnb --enable-version3 --enable-nonfree
  libavutil      55. 35.100 / 55. 35.100
  libavcodec     57. 66.101 / 57. 66.101
  libavformat    57. 57.100 / 57. 57.100
  libavdevice    57.  2.100 / 57.  2.100
  libavfilter     6. 66.100 /  6. 66.100
  libswscale      4.  3.100 /  4.  3.100
  libswresample   2.  4.100 /  2.  4.100
  libpostproc    54.  2.100 / 54.  2.100
Input #0, yuv4mpegpipe, from 'Input/y4m/crowd_run_2160p50.y4m':
  Duration: 00:00:10.00, start: 0.000000, bitrate: 4976642 kb/s
    Stream #0:0: Video: rawvideo (I420 / 0x30323449), yuv420p(progressive), 3840x2160, SAR 1:1 DAR 16:9, 50 fps, 50 tbr, 50 tbn, 50 tbc
[libx264 @ 0x3cf61c0] using SAR=1/1
[libx264 @ 0x3cf61c0] using cpu capabilities: MMX2 SSE2Fast SSSE3 SSE4.2 AVX FMA3 AVX2 LZCNT BMI2
[libx264 @ 0x3cf61c0] profile High, level 5.2
[libx264 @ 0x3cf61c0] 264 - core 148 - H.264/MPEG-4 AVC codec - Copyleft 2003-2016 - http://www.videolan.org/x264.html - options: cabac=1 ref=3 deblock=1:0:0 analyse=0x3:0x113 me=hex subme=7 psy=1 psy_rd=1.00:0.00 mixed_ref=1 me_range=16 chroma_me=1 trellis=1 8x8dct=1 cqm=0 deadzone=21,11 fast_pskip=1 chroma_qp_offset=-2 threads=6 lookahead_threads=1 sliced_threads=0 nr=0 decimate=1 interlaced=0 bluray_compat=0 constrained_intra=0 bframes=3 b_pyramid=2 b_adapt=1 b_bias=0 direct=1 weightb=1 open_gop=0 weightp=2 keyint=250 keyint_min=25 scenecut=40 intra_refresh=0 rc_lookahead=40 rc=abr mbtree=1 bitrate=2500 ratetol=1.0 qcomp=0.60 qpmin=0 qpmax=69 qpstep=4 ip_ratio=1.40 aq=1:1.00
Output #0, matroska, to 'Output/x264/encoded/crowd_run_2160p50medium2500k.mkv':
  Metadata:
    encoder         : Lavf57.57.100
    Stream #0:0: Video: h264 (libx264) (H264 / 0x34363248), yuv420p, 3840x2160 [SAR 1:1 DAR 16:9], q=-1--1, 2500 kb/s, 50 fps, 1k tbn, 50 tbc
    Metadata:
      encoder         : Lavc57.66.101 libx264
    Side data:
      cpb: bitrate max/min/avg: 0/0/2500000 buffer size: 0 vbv_delay: -1
Stream mapping:
  Stream #0:0 -> #0:0 (rawvideo (native) -> h264 (libx264))
Press [q] to stop, [?] for help
frame=   19 fps=0.0 q=0.0 size=       0kB time=00:00:00.00 bitrate=N/A speed=   0x    frame=   36 fps= 35 q=0.0 size=       0kB time=00:00:00.00 bitrate=N/A speed=   0x    frame=   47 fps= 14 q=0.0 size=       0kB time=00:00:00.00 bitrate=N/A speed=   0x    frame=   54 fps= 13 q=47.0 size=       1kB time=00:00:00.02 bitrate= 279.6kbits/s speed=0.00519x    frame=   59 fps= 13 q=63.0 size=       1kB time=00:00:00.12 bitrate=  48.5kbits/s speed=0.0264x    frame=   66 fps= 13 q=62.0 size=       1kB time=00:00:00.26 bitrate=  22.5kbits/s speed=0.0511x    frame=   75 fps= 13 q=62.0 size=       1kB time=00:00:00.44 bitrate=  13.3kbits/s speed=0.0785x    frame=   82 fps= 13 q=62.0 size=       1kB time=00:00:00.58 bitrate=  10.1kbits/s speed=0.0949x    frame=   91 fps= 14 q=62.0 size=       1kB time=00:00:00.76 bitrate=   7.7kbits/s speed=0.115x    frame=  100 fps= 14 q=62.0 size=       1kB time=00:00:00.94 bitrate=   6.2kbits/s speed=0.13x    frame=  109 fps= 14 q=62.0 size=       1kB time=00:00:01.12 bitrate=   5.2kbits/s speed=0.145x    frame=  117 fps= 14 q=61.0 size=       1kB time=00:00:01.28 bitrate=   4.6kbits/s speed=0.155x    frame=  124 fps= 14 q=61.0 size=       1kB time=00:00:01.42 bitrate=   4.1kbits/s speed=0.161x    frame=  133 fps= 14 q=61.0 size=       1kB time=00:00:01.60 bitrate=   3.7kbits/s speed=0.172x    frame=  141 fps= 14 q=61.0 size=       1kB time=00:00:01.76 bitrate=   3.3kbits/s speed=0.174x    frame=  147 fps= 14 q=60.0 size=       1kB time=00:00:01.88 bitrate=   3.1kbits/s speed=0.176x    frame=  154 fps= 14 q=60.0 size=       1kB time=00:00:02.02 bitrate=   2.9kbits/s speed=0.18x    frame=  159 fps= 13 q=60.0 size=       1kB time=00:00:02.12 bitrate=   2.8kbits/s speed=0.179x    frame=  168 fps= 14 q=60.0 size=       1kB time=00:00:02.30 bitrate=   2.6kbits/s speed=0.186x    frame=  176 fps= 13 q=60.0 size=       1kB time=00:00:02.46 bitrate=   2.4kbits/s speed=0.186x    frame=  185 fps= 13 q=60.0 size=       1kB time=00:00:02.64 bitrate=   2.2kbits/s speed=0.192x    frame=  188 fps= 13 q=60.0 size=       1kB time=00:00:02.70 bitrate=   2.2kbits/s speed=0.187x    frame=  197 fps= 13 q=59.0 size=       1kB time=00:00:02.88 bitrate=   2.0kbits/s speed=0.192x    frame=  202 fps= 13 q=59.0 size=       1kB time=00:00:02.98 bitrate=   2.0kbits/s speed=0.19x    frame=  210 fps= 13 q=59.0 size=       1kB time=00:00:03.14 bitrate=   1.9kbits/s speed=0.194x    frame=  219 fps= 13 q=59.0 size=       1kB time=00:00:03.32 bitrate=   1.8kbits/s speed=0.198x    frame=  227 fps= 13 q=59.0 size=       1kB time=00:00:03.48 bitrate=   1.7kbits/s speed=0.202x    frame=  234 fps= 13 q=59.0 size=       1kB time=00:00:03.62 bitrate=   1.6kbits/s speed=0.204x    frame=  243 fps= 13 q=59.0 size=       1kB time=00:00:03.80 bitrate=   1.5kbits/s speed=0.207x    frame=  249 fps= 13 q=59.0 size=       1kB time=00:00:03.92 bitrate=   1.5kbits/s speed=0.208x    frame=  255 fps= 13 q=59.0 size=       1kB time=00:00:04.04 bitrate=   1.5kbits/s speed=0.209x    frame=  261 fps= 13 q=59.0 size=       1kB time=00:00:04.16 bitrate=   1.4kbits/s speed=0.209x    frame=  270 fps= 13 q=59.0 size=       1kB time=00:00:04.34 bitrate=   1.4kbits/s speed=0.212x    frame=  275 fps= 13 q=59.0 size=       1kB time=00:00:04.44 bitrate=   1.3kbits/s speed=0.211x    frame=  282 fps= 13 q=59.0 size=       1kB time=00:00:04.58 bitrate=   1.3kbits/s speed=0.212x    frame=  290 fps= 13 q=59.0 size=       1kB time=00:00:04.74 bitrate=   1.2kbits/s speed=0.214x    frame=  297 fps= 13 q=59.0 size=       1kB time=00:00:04.88 bitrate=   1.2kbits/s speed=0.207x    frame=  306 fps= 13 q=59.0 size=    1554kB time=00:00:05.06 bitrate=2515.7kbits/s speed=0.21x    frame=  308 fps= 12 q=59.0 size=    1554kB time=00:00:05.10 bitrate=2496.0kbits/s speed=0.207x    frame=  316 fps= 12 q=59.0 size=    1554kB time=00:00:05.26 bitrate=2420.1kbits/s speed=0.204x    frame=  319 fps= 12 q=59.0 size=    1554kB time=00:00:05.32 bitrate=2392.8kbits/s speed=0.201x    frame=  327 fps= 12 q=59.0 size=    1554kB time=00:00:05.48 bitrate=2322.9kbits/s speed=0.203x    frame=  331 fps= 12 q=59.0 size=    1554kB time=00:00:05.56 bitrate=2289.5kbits/s speed=0.202x    frame=  339 fps= 12 q=59.0 size=    1554kB time=00:00:05.72 bitrate=2225.5kbits/s speed=0.202x    frame=  343 fps= 12 q=59.0 size=    1554kB time=00:00:05.80 bitrate=2194.8kbits/s speed=0.199x    frame=  349 fps= 12 q=59.0 size=    1554kB time=00:00:05.92 bitrate=2150.3kbits/s speed= 0.2x    frame=  356 fps= 12 q=59.0 size=    1554kB time=00:00:06.06 bitrate=2100.6kbits/s speed=0.201x    frame=  362 fps= 12 q=59.0 size=    1554kB time=00:00:06.18 bitrate=2059.9kbits/s speed=0.201x    frame=  368 fps= 12 q=59.0 size=    1554kB time=00:00:06.30 bitrate=2020.6kbits/s speed=0.201x    frame=  370 fps= 12 q=59.0 size=    1554kB time=00:00:06.34 bitrate=2007.9kbits/s speed=0.199x    frame=  375 fps= 11 q=59.0 size=    1554kB time=00:00:06.44 bitrate=1976.7kbits/s speed=0.197x    frame=  379 fps= 11 q=59.0 size=    1554kB time=00:00:06.52 bitrate=1952.5kbits/s speed=0.195x    frame=  382 fps= 11 q=59.0 size=    1554kB time=00:00:06.58 bitrate=1934.7kbits/s speed=0.192x    frame=  384 fps= 11 q=59.0 size=    1554kB time=00:00:06.62 bitrate=1923.0kbits/s speed=0.189x    frame=  389 fps= 11 q=59.0 size=    1554kB time=00:00:06.72 bitrate=1894.4kbits/s speed=0.188x    frame=  393 fps= 11 q=59.0 size=    1554kB time=00:00:06.80 bitrate=1872.1kbits/s speed=0.186x    frame=  396 fps= 11 q=59.0 size=    1554kB time=00:00:06.86 bitrate=1855.7kbits/s speed=0.185x    frame=  400 fps= 11 q=59.0 size=    1554kB time=00:00:06.94 bitrate=1834.3kbits/s speed=0.184x    frame=  406 fps= 11 q=59.0 size=    1554kB time=00:00:07.06 bitrate=1803.1kbits/s speed=0.185x    frame=  409 fps= 11 q=59.0 size=    1554kB time=00:00:07.12 bitrate=1787.9kbits/s speed=0.183x    frame=  416 fps= 11 q=59.0 size=    1554kB time=00:00:07.26 bitrate=1753.5kbits/s speed=0.185x    frame=  422 fps= 11 q=59.0 size=    1554kB time=00:00:07.38 bitrate=1725.0kbits/s speed=0.185x    frame=  426 fps= 10 q=59.0 size=    1554kB time=00:00:07.46 bitrate=1706.5kbits/s speed=0.184x    frame=  430 fps= 10 q=59.0 size=    1554kB time=00:00:07.54 bitrate=1688.4kbits/s speed=0.184x    frame=  436 fps= 10 q=59.0 size=    1554kB time=00:00:07.66 bitrate=1661.9kbits/s speed=0.183x    frame=  442 fps= 10 q=59.0 size=    1554kB time=00:00:07.78 bitrate=1636.3kbits/s speed=0.183x    frame=  448 fps= 10 q=59.0 size=    1554kB time=00:00:07.90 bitrate=1611.4kbits/s speed=0.183x    frame=  454 fps= 10 q=59.0 size=    1554kB time=00:00:08.02 bitrate=1587.3kbits/s speed=0.183x    frame=  458 fps= 10 q=59.0 size=    1554kB time=00:00:08.10 bitrate=1571.7kbits/s speed=0.182x    frame=  462 fps= 10 q=59.0 size=    1554kB time=00:00:08.18 bitrate=1556.3kbits/s speed=0.181x    frame=  468 fps= 10 q=59.0 size=    1554kB time=00:00:08.30 bitrate=1533.8kbits/s speed=0.18x    frame=  470 fps= 10 q=59.0 size=    1554kB time=00:00:08.34 bitrate=1526.4kbits/s speed=0.178x    frame=  473 fps=9.9 q=59.0 size=    1554kB time=00:00:08.40 bitrate=1515.5kbits/s speed=0.176x    frame=  476 fps=9.8 q=59.0 size=    1554kB time=00:00:08.46 bitrate=1504.8kbits/s speed=0.174x    frame=  481 fps=9.7 q=59.0 size=    1554kB time=00:00:08.56 bitrate=1487.2kbits/s speed=0.173x    frame=  487 fps=9.7 q=59.0 size=    1554kB time=00:00:08.68 bitrate=1466.6kbits/s speed=0.173x    frame=  496 fps=9.8 q=59.0 size=    1554kB time=00:00:08.86 bitrate=1436.9kbits/s speed=0.175x    frame=  500 fps=9.3 q=-1.0 Lsize=    3137kB time=00:00:09.94 bitrate=2585.4kbits/s speed=0.185x    
video:3133kB audio:0kB subtitle:0kB other streams:0kB global headers:0kB muxing overhead: 0.137522%
bench: utime=129.260s
bench: maxrss=1874388kB
[libx264 @ 0x3cf61c0] frame I:2     Avg QP:46.40  size: 85688
[libx264 @ 0x3cf61c0] frame P:126   Avg QP:50.92  size: 17077
[libx264 @ 0x3cf61c0] frame B:372   Avg QP:50.95  size:  2378
[libx264 @ 0x3cf61c0] consecutive B-frames:  0.8%  0.0%  0.0% 99.2%
[libx264 @ 0x3cf61c0] mb I  I16..4: 40.9% 56.6%  2.4%
[libx264 @ 0x3cf61c0] mb P  I16..4:  6.7%  2.5%  0.0%  P16..4: 15.5%  1.2%  4.3%  0.0%  0.0%    skip:69.8%
[libx264 @ 0x3cf61c0] mb B  I16..4:  0.0%  0.0%  0.0%  B16..8:  7.4%  0.0%  0.0%  direct: 0.0%  skip:92.5%  L0:36.1% L1:63.9% BI: 0.0%
[libx264 @ 0x3cf61c0] final ratefactor: 51.21
[libx264 @ 0x3cf61c0] 8x8 transform intra:31.2% inter:99.3%
[libx264 @ 0x3cf61c0] coded y,uvDC,uvAC intra: 5.1% 36.4% 1.5% inter: 0.3% 1.2% 0.0%
[libx264 @ 0x3cf61c0] i16 v,h,dc,p: 66% 22%  7%  5%
[libx264 @ 0x3cf61c0] i8 v,h,dc,ddl,ddr,vr,hd,vl,hu: 12%  7% 63%  4%  3%  3%  3%  3%  2%
[libx264 @ 0x3cf61c0] i4 v,h,dc,ddl,ddr,vr,hd,vl,hu: 28% 19% 14%  8%  8%  7%  6%  5%  4%
[libx264 @ 0x3cf61c0] i8c dc,h,v,p: 97%  1%  1%  0%
[libx264 @ 0x3cf61c0] Weighted P-Frames: Y:1.6% UV:0.8%
[libx264 @ 0x3cf61c0] ref P L0: 70.9%  0.7% 18.8%  9.5%  0.2%
[libx264 @ 0x3cf61c0] ref B L0: 93.6%  3.5%  2.9%
[libx264 @ 0x3cf61c0] ref B L1: 97.9%  2.1%
[libx264 @ 0x3cf61c0] kb/s:2566.02
